<svg xmlns="http://www.w3.org/2000/svg" xmlns:xlink="http://www.w3.org/1999/xlink" viewBox="0 0 296 312"><defs><style>.cls-1{fill:none;}.cls-2{clip-path:url(#clip-path);}.cls-3{fill:#33485d;}</style><clipPath id="clip-path"><rect class="cls-1" x="0.02" width="295.54" height="311.85"/></clipPath></defs><title>Asset 7</title><g id="Layer_2" data-name="Layer 2"><g id="Layer_1-2" data-name="Layer 1"><g class="cls-2"><path class="cls-3" d="M296,242.69a23,23,0,0,1-3,3.66,6.66,6.66,0,0,1-7.46.73,7.16,7.16,0,0,1-4.18-6.54c-.72-11.43-1.45-22.87-2.45-34.28a28.9,28.9,0,0,0-3.06-9.79v74.24h-4.49c.2.53.22,1,.46,1.18,3.69,3.38,4.39,7.63,4.12,12.41-.29,5.17-.06,10.36-.09,15.55,0,7.07-4.37,11.77-10.78,11.73s-10.51-4.71-10.52-11.62q0-20.12,0-40.24v-3.4h-3.65c-.06,1.07-.15,2.14-.15,3.22q0,19.51,0,39a24.08,24.08,0,0,1-.17,3.64A10.58,10.58,0,0,1,239,311.57c-5.42-.32-9.6-4.72-9.64-10.62-.11-14.53-.05-29.07-.06-43.6,0-6.61.07-13.21,0-19.82,0-1.83.43-3.09,2.09-4,1.07-.57,1.94-1.54,3-2,4.88-2.27,6.42-6,5-11.53-3,2.28-5.08,6.36-10,5.5v-29.1l-1-.15c-1.07,5.09-2.63,10.13-3.1,15.27-.83,9.19-1.1,18.43-1.41,27.66-.17,5.11-3,8.61-7.4,8.69-4.15.07-7.33-3.13-7.41-8-.28-17.12.54-34.12,6.44-50.44,2.69-7.44,6.41-14.3,12.91-19.19,4.15-3.12,8.34-4.17,13.52-1.58,7.43,3.71,15.16,3.17,22.6-.56,4.07-2,11.27-.26,13.72,3.52a3.21,3.21,0,0,1,.18,2c-.23,1.78-.56,3.56-.93,5.79l5.93-1.88a48.11,48.11,0,0,1,8.08,18.16c1.72,7.7,2.62,15.57,3.89,23.37.19,1.18.41,2.35.61,3.53Z"/><path class="cls-3" d="M109.82,0c1.65.4,3.31.79,5,1.2a30,30,0,0,1,22.41,32.32,30,30,0,0,1-59.64-.87A29.94,29.94,0,0,1,103.27.58,9.08,9.08,0,0,0,104.94,0Z"/><path class="cls-3" d="M143.37,227.07V271.9q0,11.43,0,22.87c0,9.65-7.17,17.17-16.42,17.24s-16.48-7.39-16.49-17.09q0-57,0-114v-4.67h-6.12v3.86q0,57.47,0,114.93c0,9.52-7.05,16.87-16.26,17a16.67,16.67,0,0,1-16.63-16.72c-.06-3.86-.08-7.73,0-11.58,0-.84.59-2.24,1.17-2.39,4.09-1.09,5.46-4.57,7.23-7.71,1-1.84,2-3.73,3.17-6l-11.44,2c-.07-1.15-.17-2.1-.17-3.06,0-14.64-.06-29.27,0-43.9a6.6,6.6,0,0,1,1.64-3.93c3.14-3.56,6.5-6.93,9.51-10.89l-11.22,3.08c0-8.51,0-16.72,0-24.93,0-10.67,0-21.34.09-32a8.54,8.54,0,0,1,1.6-3.88c.94-1.55,2.31-2.84,3.19-4.41q12.24-21.76,24.36-43.59c4.88-8.76,2.77-15.82-6-20.51a3,3,0,0,1-1.37-2c-.57-4.82-1-9.65-1.49-14.86h2.85c6.41,0,12.83-.21,19.22.07,10.44.46,20.61-.43,30.56-3.92a69.23,69.23,0,0,1,12.17-2.69,5.12,5.12,0,0,1,3.89,1.31c13,13.53,33.18,13.52,46.12,0,.84-.88,2.57-.94,3.89-1.35.16-.05.38.12.58.17,8.17,2,8.16,2,9.84,10.22.32,1.56.73,3.1,1.25,5.24l7.15-9.17c8.91,4.29,17,9.59,23.43,17.12,3.51,4.13,2.62,10.32-1.44,14a10.53,10.53,0,0,1-14.17.13c-3.53-3-7.08-6-10.61-9l-.54.58c2.67,3.29,5.51,6.46,8,9.9a112.34,112.34,0,0,1,6.77,10.84c2.09,3.79,3.84,7.77,5.48,11.12L231.36,129c-3.21-7.52-6.86-15.67-12.82-22.58q6,29.56,12,59.23c-14.67,9.31-19,24.36-21.76,40.08-1.25,7.06-1.69,14.27-2.58,22.12-7.86.4-16,1.2-24,1.15-17.48-.12-34.62-2.51-50.89-9.39-5.35-2.26-5.34-2.31-4.23-7.84.58-2.88,1-5.81,1.87-8.61a5,5,0,0,1,2.53-2.78c2.89-1.21,5.94-2,8.92-3,.08,0,.14-.13.54-.56-2.32-1.45-4.49-3-6.84-4.23-2.16-1.1-2.71-2.39-2.21-4.79,4-19.24,7.93-38.52,11.86-57.78,1.58-7.72,3.14-15.45,4.85-23.87l-2.25,2.1c-.93-4-.6-23.83.57-26l-3.53.89c0,4.83-.26,9.62.05,14.36,1,15.88-1.77,31.27-5.08,46.7-5.14,24-9.83,48.05-14.81,72.06a2.47,2.47,0,0,0,1.73,3.27c5.88,2.46,11.77,4.9,18.13,7.54"/><path class="cls-3" d="M90,61.89c-5.47.31-10,.34-14.49.86A38.49,38.49,0,0,0,53.81,72.89a13,13,0,0,0-4.5,10.55c.61,18.78,1.12,37.57,1.76,56.35.32,9.58,6.78,14.79,16.21,13.31.4-.07.81-.09,1.21-.13,2.41,13.19-3.79,28.17-17.08,31.47-24,6-48.09-10.54-50.85-34.94-2.49-22,3.61-41.86,14.6-60.38,4.73-8,10.65-15.34,16.72-22.39,13.22-15.38,33.46-17.07,50.67-9,2.32,1.09,4.5,2.5,7.47,4.16"/><path class="cls-3" d="M86.74,81.13c-5.15,1.66-7.62,5.11-9.76,9.06-4.58,8.48-9.42,16.81-14,25.3-.8,1.49-.84,3.39-1.22,5.1l1,.3c1.2-2.09,2.43-4.16,3.6-6.26,4.8-8.59,9.51-17.23,14.39-25.77a10.1,10.1,0,0,1,11-5.33c4.47.69,7.6,3.33,8.43,7.66A12.73,12.73,0,0,1,99.26,99c-8.41,15.62-17.11,31.1-25.82,46.56a10.61,10.61,0,0,1-19.83-5.08C53,121.75,52.48,103,51.8,84.2a12.07,12.07,0,0,1,4.71-10.35,37.72,37.72,0,0,1,17.38-8.31,3.67,3.67,0,0,1,3.06,1c3.28,4.61,6.33,9.38,9.8,14.61"/><path class="cls-3" d="M155,38.54A28.55,28.55,0,1,1,183.17,67,28.57,28.57,0,0,1,155,38.54"/><path class="cls-3" d="M154.88,229.45l26.17,2.39a9.25,9.25,0,0,1,.25,1.58c0,21.74,0,43.49,0,65.23a13.08,13.08,0,0,1-10.84,12.87,13.24,13.24,0,0,1-15-9.11,17.92,17.92,0,0,1-.68-5.1q0-32.92,0-65.84c0-.6.09-1.2.15-2"/><path class="cls-3" d="M185.94,231.7l20.5-1.49c0,2.48,0,5.07,0,7.65-.07,4.57.74,8.7,5.1,11.3a2.64,2.64,0,0,1,.8,1.77c.67,5.24,0,9.65-6,11.73-2.78,1-5.18,3-8.32,4.86,2.15.31,3.64.82,5.07.68,3.25-.31,4.7,1.35,6.27,4a20.3,20.3,0,0,1,3,12.07c-.26,4.65,0,9.33-.06,14a13.22,13.22,0,0,1-12.63,13.4c-7.61.25-13.93-5.06-14-12.58-.2-22.12-.06-44.25,0-66.37a4,4,0,0,1,.29-1"/><path class="cls-3" d="M229.33,145.41a23.24,23.24,0,1,1,23.29,23.13,23.2,23.2,0,0,1-23.29-23.13"/></g></g></g></svg>